<svg xmlns="http://www.w3.org/2000/svg" viewBox="0 0 164 164" width="164" height="164">
	<style>
		tspan { white-space:pre }
		.shp0 { fill: none;stroke: #000000;stroke-linecap:square;stroke-width: 2 } 
		.shp1 { fill: #00ff00 } 
	</style>
	<g id="Layer">
		<path id="Layer" class="shp0" d="M2 2L66 2" />
		<path id="Layer" class="shp0" d="M82 2L162 2" />
		<path id="Layer" class="shp0" d="M18 18L98 18" />
		<path id="Layer" class="shp0" d="M130 18L146 18" />
		<path id="Layer" class="shp0" d="M2 34L50 34" />
		<path id="Layer" class="shp0" d="M82 34L130 34" />
		<path id="Layer" class="shp0" d="M146 34L162 34" />
		<path id="Layer" class="shp0" d="M2 50L18 50" />
		<path id="Layer" class="shp0" d="M50 50L66 50" />
		<path id="Layer" class="shp0" d="M98 50L146 50" />
		<path id="Layer" class="shp0" d="M18 66L50 66" />
		<path id="Layer" class="shp0" d="M98 66L146 66" />
		<path id="Layer" class="shp0" d="M2 82L18 82" />
		<path id="Layer" class="shp0" d="M50 82L66 82" />
		<path id="Layer" class="shp0" d="M82 82L98 82" />
		<path id="Layer" class="shp0" d="M114 82L130 82" />
		<path id="Layer" class="shp0" d="M18 98L34 98" />
		<path id="Layer" class="shp0" d="M50 98L66 98" />
		<path id="Layer" class="shp0" d="M98 98L114 98" />
		<path id="Layer" class="shp0" d="M130 98L162 98" />
		<path id="Layer" class="shp0" d="M2 114L18 114" />
		<path id="Layer" class="shp0" d="M34 114L82 114" />
		<path id="Layer" class="shp0" d="M114 114L130 114" />
		<path id="Layer" class="shp0" d="M18 130L82 130" />
		<path id="Layer" class="shp0" d="M130 130L146 130" />
		<path id="Layer" class="shp0" d="M82 146L114 146" />
		<path id="Layer" class="shp0" d="M2 162L82 162" />
		<path id="Layer" class="shp0" d="M98 162L162 162" />
		<path id="Layer" class="shp0" d="M2 2L2 162" />
		<path id="Layer" class="shp0" d="M18 146L18 162" />
		<path id="Layer" class="shp0" d="M34 50L34 114" />
		<path id="Layer" class="shp0" d="M34 130L34 146" />
		<path id="Layer" class="shp0" d="M50 82L50 98" />
		<path id="Layer" class="shp0" d="M50 146L50 162" />
		<path id="Layer" class="shp0" d="M66 18L66 82" />
		<path id="Layer" class="shp0" d="M66 130L66 162" />
		<path id="Layer" class="shp0" d="M82 50L82 130" />
		<path id="Layer" class="shp0" d="M98 2L98 18" />
		<path id="Layer" class="shp0" d="M98 66L98 82" />
		<path id="Layer" class="shp0" d="M98 98L98 162" />
		<path id="Layer" class="shp0" d="M114 18L114 34" />
		<path id="Layer" class="shp0" d="M114 82L114 98" />
		<path id="Layer" class="shp0" d="M114 114L114 130" />
		<path id="Layer" class="shp0" d="M130 34L130 50" />
		<path id="Layer" class="shp0" d="M130 98L130 114" />
		<path id="Layer" class="shp0" d="M130 130L130 162" />
		<path id="Layer" class="shp0" d="M146 18L146 34" />
		<path id="Layer" class="shp0" d="M146 50L146 82" />
		<path id="Layer" class="shp0" d="M146 114L146 146" />
		<path id="Layer" class="shp0" d="M162 2L162 162" />
		<path id="Shape 1" class="shp1" d="M35.29 43.02L30.64 38.62C30.58 38.56 30.5 38.52 30.41 38.52C30.32 38.51 30.24 38.54 30.17 38.6L29.63 39.03C29.56 39.08 29.52 39.15 29.52 39.23C29.52 39.31 29.55 39.38 29.61 39.44L33.53 43.15L29.32 46.52C29.24 46.58 29.21 46.65 29.2 46.73C29.2 46.8 29.23 46.87 29.3 46.94L29.8 47.41C29.86 47.47 29.94 47.51 30.03 47.51C30.12 47.51 30.2 47.49 30.27 47.43L35.27 43.43C35.34 43.38 35.38 43.31 35.38 43.23C35.38 43.15 35.35 43.08 35.29 43.02L35.29 43.02ZM39.26 43.19L34.61 38.78C34.55 38.72 34.47 38.69 34.38 38.68C34.29 38.68 34.21 38.71 34.14 38.76L33.6 39.19C33.53 39.25 33.49 39.32 33.49 39.4C33.49 39.47 33.52 39.55 33.59 39.61L37.5 43.32L33.29 46.69C33.22 46.75 33.18 46.81 33.18 46.89C33.17 46.97 33.2 47.04 33.27 47.1L33.77 47.58C33.84 47.64 33.91 47.67 34 47.68C34.09 47.68 34.17 47.65 34.24 47.6L39.24 43.6C39.31 43.54 39.35 43.48 39.35 43.4C39.36 43.32 39.32 43.25 39.26 43.19L39.26 43.19Z" />
		<path id="Shape 1 copy" class="shp1" d="M43.29 57.02L38.64 52.62C38.58 52.56 38.5 52.52 38.41 52.52C38.32 52.51 38.24 52.54 38.17 52.6L37.63 53.03C37.56 53.08 37.52 53.15 37.52 53.23C37.52 53.31 37.55 53.38 37.61 53.44L41.53 57.15L37.32 60.52C37.24 60.58 37.21 60.65 37.2 60.73C37.2 60.8 37.23 60.87 37.3 60.94L37.8 61.41C37.86 61.47 37.94 61.51 38.03 61.51C38.12 61.51 38.2 61.49 38.27 61.43L43.27 57.43C43.34 57.38 43.38 57.31 43.38 57.23C43.38 57.15 43.35 57.08 43.29 57.02L43.29 57.02ZM47.26 57.19L42.61 52.78C42.55 52.72 42.47 52.69 42.38 52.68C42.29 52.68 42.21 52.71 42.14 52.76L41.6 53.19C41.53 53.25 41.49 53.32 41.49 53.4C41.49 53.47 41.52 53.55 41.59 53.61L45.5 57.32L41.29 60.69C41.22 60.75 41.18 60.81 41.18 60.89C41.17 60.97 41.2 61.04 41.27 61.1L41.77 61.58C41.84 61.64 41.91 61.67 42 61.68C42.09 61.68 42.17 61.65 42.24 61.6L47.24 57.6C47.31 57.54 47.35 57.48 47.35 57.4C47.36 57.32 47.32 57.25 47.26 57.19L47.26 57.19Z" />
		<path id="Shape 1 copy 2" class="shp1" d="M57.36 59.1L61.75 54.45C61.81 54.38 61.84 54.3 61.85 54.21C61.85 54.13 61.82 54.04 61.77 53.97L61.34 53.44C61.28 53.37 61.21 53.33 61.13 53.33C61.05 53.32 60.98 53.36 60.92 53.42L57.22 57.35L53.84 53.14C53.78 53.07 53.71 53.04 53.64 53.03C53.56 53.03 53.49 53.06 53.42 53.13L52.95 53.63C52.89 53.69 52.86 53.77 52.85 53.86C52.85 53.95 52.88 54.03 52.93 54.1L56.95 59.09C57 59.16 57.07 59.2 57.15 59.2C57.23 59.2 57.3 59.17 57.36 59.1L57.36 59.1ZM57.2 63.08L61.59 58.42C61.65 58.35 61.69 58.28 61.69 58.19C61.7 58.1 61.67 58.02 61.61 57.95L61.18 57.41C61.12 57.34 61.06 57.3 60.98 57.3C60.9 57.3 60.83 57.33 60.77 57.39L57.07 61.32L53.68 57.12C53.63 57.05 53.56 57.01 53.48 57.01C53.4 57 53.33 57.03 53.27 57.1L52.8 57.6C52.74 57.67 52.7 57.74 52.7 57.83C52.69 57.92 52.72 58 52.78 58.08L56.79 63.06C56.85 63.13 56.91 63.17 56.99 63.17C57.07 63.18 57.14 63.14 57.2 63.08L57.2 63.08Z" />
		<path id="Shape 1 copy 20" class="shp1" d="M122.36 12.1L126.75 7.45C126.81 7.38 126.84 7.3 126.85 7.21C126.85 7.13 126.82 7.04 126.77 6.97L126.34 6.44C126.28 6.37 126.21 6.33 126.13 6.33C126.05 6.32 125.98 6.36 125.92 6.42L122.22 10.35L118.84 6.14C118.78 6.07 118.71 6.04 118.64 6.03C118.56 6.03 118.49 6.06 118.42 6.13L117.95 6.63C117.89 6.69 117.86 6.77 117.85 6.86C117.85 6.95 117.88 7.03 117.93 7.1L121.95 12.09C122 12.16 122.07 12.2 122.15 12.2C122.23 12.2 122.3 12.17 122.36 12.1L122.36 12.1ZM122.2 16.08L126.59 11.42C126.65 11.35 126.69 11.28 126.69 11.19C126.7 11.1 126.67 11.02 126.61 10.95L126.18 10.41C126.12 10.34 126.06 10.3 125.98 10.3C125.9 10.3 125.83 10.33 125.77 10.39L122.07 14.32L118.68 10.12C118.63 10.05 118.56 10.01 118.48 10.01C118.4 10 118.33 10.03 118.27 10.1L117.8 10.6C117.74 10.67 117.7 10.74 117.7 10.83C117.69 10.92 117.72 11 117.78 11.08L121.79 16.06C121.85 16.13 121.91 16.17 121.99 16.17C122.07 16.18 122.14 16.14 122.2 16.08L122.2 16.08Z" />
		<path id="Shape 1 copy 21" class="shp1" d="M137.36 28.1L141.75 23.45C141.81 23.38 141.84 23.3 141.85 23.21C141.85 23.13 141.82 23.04 141.77 22.97L141.34 22.44C141.28 22.37 141.21 22.33 141.13 22.33C141.05 22.32 140.98 22.36 140.92 22.42L137.22 26.35L133.84 22.14C133.78 22.07 133.71 22.04 133.64 22.03C133.56 22.03 133.49 22.06 133.42 22.13L132.95 22.63C132.89 22.69 132.86 22.77 132.85 22.86C132.85 22.95 132.88 23.03 132.93 23.1L136.95 28.09C137 28.16 137.07 28.2 137.15 28.2C137.23 28.2 137.3 28.17 137.36 28.1L137.36 28.1ZM137.2 32.08L141.59 27.42C141.65 27.35 141.69 27.28 141.69 27.19C141.7 27.1 141.67 27.02 141.61 26.95L141.18 26.41C141.12 26.34 141.06 26.3 140.98 26.3C140.9 26.3 140.83 26.33 140.77 26.39L137.07 30.32L133.68 26.12C133.63 26.05 133.56 26.01 133.48 26.01C133.4 26 133.33 26.03 133.27 26.1L132.8 26.6C132.74 26.67 132.7 26.74 132.7 26.83C132.69 26.92 132.72 27 132.78 27.08L136.79 32.06C136.85 32.13 136.91 32.17 136.99 32.17C137.07 32.18 137.14 32.14 137.2 32.08L137.2 32.08Z" />
		<path id="Shape 1 copy 22" class="shp1" d="M155.36 45.1L159.75 40.45C159.81 40.38 159.84 40.3 159.85 40.21C159.85 40.13 159.82 40.04 159.77 39.97L159.34 39.44C159.28 39.37 159.21 39.33 159.13 39.33C159.05 39.32 158.98 39.36 158.92 39.42L155.22 43.35L151.84 39.14C151.78 39.07 151.71 39.04 151.64 39.03C151.56 39.03 151.49 39.06 151.42 39.13L150.95 39.63C150.89 39.69 150.86 39.77 150.85 39.86C150.85 39.95 150.88 40.03 150.93 40.1L154.95 45.09C155 45.16 155.07 45.2 155.15 45.2C155.23 45.2 155.3 45.17 155.36 45.1L155.36 45.1ZM155.2 49.08L159.59 44.42C159.65 44.35 159.69 44.28 159.69 44.19C159.7 44.1 159.67 44.02 159.61 43.95L159.18 43.41C159.12 43.34 159.06 43.3 158.98 43.3C158.9 43.3 158.83 43.33 158.77 43.39L155.07 47.32L151.68 43.12C151.63 43.05 151.56 43.01 151.48 43.01C151.4 43 151.33 43.03 151.27 43.1L150.8 43.6C150.74 43.67 150.7 43.74 150.7 43.83C150.69 43.92 150.72 44 150.78 44.08L154.79 49.06C154.85 49.13 154.91 49.17 154.99 49.17C155.07 49.18 155.14 49.14 155.2 49.08L155.2 49.08Z" />
		<path id="Shape 1 copy 23" class="shp1" d="M155.36 61.1L159.75 56.45C159.81 56.38 159.84 56.3 159.85 56.21C159.85 56.13 159.82 56.04 159.77 55.97L159.34 55.44C159.28 55.37 159.21 55.33 159.13 55.33C159.05 55.32 158.98 55.36 158.92 55.42L155.22 59.35L151.84 55.14C151.78 55.07 151.71 55.04 151.64 55.03C151.56 55.03 151.49 55.06 151.42 55.13L150.95 55.63C150.89 55.69 150.86 55.77 150.85 55.86C150.85 55.95 150.88 56.03 150.93 56.1L154.95 61.09C155 61.16 155.07 61.2 155.15 61.2C155.23 61.2 155.3 61.17 155.36 61.1L155.36 61.1ZM155.2 65.08L159.59 60.42C159.65 60.35 159.69 60.28 159.69 60.19C159.7 60.1 159.67 60.02 159.61 59.95L159.18 59.41C159.12 59.34 159.06 59.3 158.98 59.3C158.9 59.3 158.83 59.33 158.77 59.39L155.07 63.32L151.68 59.12C151.63 59.05 151.56 59.01 151.48 59.01C151.4 59 151.33 59.03 151.27 59.1L150.8 59.6C150.74 59.67 150.7 59.74 150.7 59.83C150.69 59.92 150.72 60 150.78 60.08L154.79 65.06C154.85 65.13 154.91 65.17 154.99 65.17C155.07 65.18 155.14 65.14 155.2 65.08L155.2 65.08Z" />
		<path id="Shape 1 copy 24" class="shp1" d="M155.36 75.1L159.75 70.45C159.81 70.38 159.84 70.3 159.85 70.21C159.85 70.13 159.82 70.04 159.77 69.97L159.34 69.44C159.28 69.37 159.21 69.33 159.13 69.33C159.05 69.32 158.98 69.36 158.92 69.42L155.22 73.35L151.84 69.14C151.78 69.07 151.71 69.04 151.64 69.03C151.56 69.03 151.49 69.06 151.42 69.13L150.95 69.63C150.89 69.69 150.86 69.77 150.85 69.86C150.85 69.95 150.88 70.03 150.93 70.1L154.95 75.09C155 75.16 155.07 75.2 155.15 75.2C155.23 75.2 155.3 75.17 155.36 75.1L155.36 75.1ZM155.2 79.08L159.59 74.42C159.65 74.35 159.69 74.28 159.69 74.19C159.7 74.1 159.67 74.02 159.61 73.95L159.18 73.41C159.12 73.34 159.06 73.3 158.98 73.3C158.9 73.3 158.83 73.33 158.77 73.39L155.07 77.32L151.68 73.12C151.63 73.05 151.56 73.01 151.48 73.01C151.4 73 151.33 73.03 151.27 73.1L150.8 73.6C150.74 73.67 150.7 73.74 150.7 73.83C150.69 73.92 150.72 74 150.78 74.08L154.79 79.06C154.85 79.13 154.91 79.17 154.99 79.17C155.07 79.18 155.14 79.14 155.2 79.08L155.2 79.08Z" />
		<path id="Shape 1 copy 25" class="shp1" d="M91.36 91.1L95.75 86.45C95.81 86.38 95.84 86.3 95.85 86.21C95.85 86.13 95.82 86.04 95.77 85.97L95.34 85.44C95.28 85.37 95.21 85.33 95.13 85.33C95.05 85.32 94.98 85.36 94.92 85.42L91.22 89.35L87.84 85.14C87.78 85.07 87.71 85.04 87.64 85.03C87.56 85.03 87.49 85.06 87.42 85.13L86.95 85.63C86.89 85.69 86.86 85.77 86.85 85.86C86.85 85.95 86.88 86.03 86.93 86.1L90.95 91.09C91 91.16 91.07 91.2 91.15 91.2C91.23 91.2 91.3 91.17 91.36 91.1L91.36 91.1ZM91.2 95.08L95.59 90.42C95.65 90.35 95.69 90.28 95.69 90.19C95.7 90.1 95.67 90.02 95.61 89.95L95.18 89.41C95.12 89.34 95.06 89.3 94.98 89.3C94.9 89.3 94.83 89.33 94.77 89.39L91.07 93.32L87.68 89.12C87.63 89.05 87.56 89.01 87.48 89.01C87.4 89 87.33 89.03 87.27 89.1L86.8 89.6C86.74 89.67 86.7 89.74 86.7 89.83C86.69 89.92 86.72 90 86.78 90.08L90.79 95.06C90.85 95.13 90.91 95.17 90.99 95.17C91.07 95.18 91.14 95.14 91.2 95.08L91.2 95.08Z" />
		<path id="Shape 1 copy 34" class="shp1" d="M106.36 75.1L110.75 70.45C110.81 70.38 110.84 70.3 110.85 70.21C110.85 70.13 110.82 70.04 110.77 69.97L110.34 69.44C110.28 69.37 110.21 69.33 110.13 69.33C110.05 69.32 109.98 69.36 109.92 69.42L106.22 73.35L102.84 69.14C102.78 69.07 102.71 69.04 102.64 69.03C102.56 69.03 102.49 69.06 102.42 69.13L101.95 69.63C101.89 69.69 101.86 69.77 101.85 69.86C101.85 69.95 101.88 70.03 101.93 70.1L105.95 75.09C106 75.16 106.07 75.2 106.15 75.2C106.23 75.2 106.3 75.17 106.36 75.1L106.36 75.1ZM106.2 79.08L110.59 74.42C110.65 74.35 110.69 74.28 110.69 74.19C110.7 74.1 110.67 74.02 110.61 73.95L110.18 73.41C110.12 73.34 110.06 73.3 109.98 73.3C109.9 73.3 109.83 73.33 109.77 73.39L106.07 77.32L102.68 73.12C102.63 73.05 102.56 73.01 102.48 73.01C102.4 73 102.33 73.03 102.27 73.1L101.8 73.6C101.74 73.67 101.7 73.74 101.7 73.83C101.69 73.92 101.72 74 101.78 74.08L105.79 79.06C105.85 79.13 105.91 79.17 105.99 79.17C106.07 79.18 106.14 79.14 106.2 79.08L106.2 79.08Z" />
		<path id="Shape 1 copy 26" class="shp1" d="M89.36 106.1L93.75 101.45C93.81 101.38 93.84 101.3 93.85 101.21C93.85 101.13 93.82 101.04 93.77 100.97L93.34 100.44C93.28 100.37 93.21 100.33 93.13 100.33C93.05 100.32 92.98 100.36 92.92 100.42L89.22 104.35L85.84 100.14C85.78 100.07 85.71 100.04 85.64 100.03C85.56 100.03 85.49 100.06 85.42 100.13L84.95 100.63C84.89 100.69 84.86 100.77 84.85 100.86C84.85 100.95 84.88 101.03 84.93 101.1L88.95 106.09C89 106.16 89.07 106.2 89.15 106.2C89.23 106.2 89.3 106.17 89.36 106.1L89.36 106.1ZM89.2 110.08L93.59 105.42C93.65 105.35 93.69 105.28 93.69 105.19C93.7 105.1 93.67 105.02 93.61 104.95L93.18 104.41C93.12 104.34 93.06 104.3 92.98 104.3C92.9 104.3 92.83 104.33 92.77 104.39L89.07 108.32L85.68 104.12C85.63 104.05 85.56 104.01 85.48 104.01C85.4 104 85.33 104.03 85.27 104.1L84.8 104.6C84.74 104.67 84.7 104.74 84.7 104.83C84.69 104.92 84.72 105 84.78 105.08L88.79 110.06C88.85 110.13 88.91 110.17 88.99 110.17C89.07 110.18 89.14 110.14 89.2 110.08L89.2 110.08Z" />
		<path id="Shape 1 copy 27" class="shp1" d="M90.36 123.1L94.75 118.45C94.81 118.38 94.84 118.3 94.85 118.21C94.85 118.13 94.82 118.04 94.77 117.97L94.34 117.44C94.28 117.37 94.21 117.33 94.13 117.33C94.05 117.32 93.98 117.36 93.92 117.42L90.22 121.35L86.84 117.14C86.78 117.07 86.71 117.04 86.64 117.03C86.56 117.03 86.49 117.06 86.42 117.13L85.95 117.63C85.89 117.69 85.86 117.77 85.85 117.86C85.85 117.95 85.88 118.03 85.93 118.1L89.95 123.09C90 123.16 90.07 123.2 90.15 123.2C90.23 123.2 90.3 123.17 90.36 123.1L90.36 123.1ZM90.2 127.08L94.59 122.42C94.65 122.35 94.69 122.28 94.69 122.19C94.7 122.1 94.67 122.02 94.61 121.95L94.18 121.41C94.12 121.34 94.06 121.3 93.98 121.3C93.9 121.3 93.83 121.33 93.77 121.39L90.07 125.32L86.68 121.12C86.63 121.05 86.56 121.01 86.48 121.01C86.4 121 86.33 121.03 86.27 121.1L85.8 121.6C85.74 121.67 85.7 121.74 85.7 121.83C85.69 121.92 85.72 122 85.78 122.08L89.79 127.06C89.85 127.13 89.91 127.17 89.99 127.17C90.07 127.18 90.14 127.14 90.2 127.08L90.2 127.08Z" />
		<path id="Shape 1 copy 28" class="shp1" d="M73.36 140.1L77.75 135.45C77.81 135.38 77.84 135.3 77.85 135.21C77.85 135.13 77.82 135.04 77.77 134.97L77.34 134.44C77.28 134.37 77.21 134.33 77.13 134.33C77.05 134.32 76.98 134.36 76.92 134.42L73.22 138.35L69.84 134.14C69.78 134.07 69.71 134.04 69.64 134.03C69.56 134.03 69.49 134.06 69.42 134.13L68.95 134.63C68.89 134.69 68.86 134.77 68.85 134.86C68.85 134.95 68.88 135.03 68.93 135.1L72.95 140.09C73 140.16 73.07 140.2 73.15 140.2C73.23 140.2 73.3 140.17 73.36 140.1L73.36 140.1ZM73.2 144.08L77.59 139.42C77.65 139.35 77.69 139.28 77.69 139.19C77.7 139.1 77.67 139.02 77.61 138.95L77.18 138.41C77.12 138.34 77.06 138.3 76.98 138.3C76.9 138.3 76.83 138.33 76.77 138.39L73.07 142.32L69.68 138.12C69.63 138.05 69.56 138.01 69.48 138.01C69.4 138 69.33 138.03 69.27 138.1L68.8 138.6C68.74 138.67 68.7 138.74 68.7 138.83C68.69 138.92 68.72 139 68.78 139.08L72.79 144.06C72.85 144.13 72.91 144.17 72.99 144.17C73.07 144.18 73.14 144.14 73.2 144.08L73.2 144.08Z" />
		<path id="Shape 1 copy 29" class="shp1" d="M76.2 153.47L71.65 148.97C71.58 148.91 71.51 148.88 71.42 148.87C71.33 148.86 71.25 148.89 71.17 148.95L70.63 149.36C70.56 149.42 70.52 149.49 70.51 149.56C70.51 149.64 70.54 149.71 70.6 149.78L74.44 153.57L70.16 156.85C70.09 156.91 70.05 156.97 70.05 157.05C70.04 157.13 70.07 157.2 70.14 157.27L70.62 157.75C70.69 157.81 70.77 157.85 70.86 157.85C70.95 157.86 71.03 157.83 71.1 157.78L76.18 153.88C76.25 153.83 76.29 153.76 76.29 153.68C76.3 153.61 76.27 153.53 76.2 153.47L76.2 153.47ZM80.17 153.72L75.62 149.22C75.55 149.16 75.47 149.12 75.38 149.12C75.3 149.11 75.21 149.14 75.14 149.19L74.6 149.61C74.52 149.67 74.49 149.73 74.48 149.81C74.48 149.89 74.51 149.96 74.57 150.02L78.41 153.82L74.13 157.1C74.06 157.15 74.02 157.22 74.01 157.3C74.01 157.38 74.04 157.45 74.1 157.51L74.59 158C74.66 158.06 74.73 158.09 74.82 158.1C74.91 158.11 74.99 158.08 75.07 158.03L80.14 154.13C80.22 154.08 80.25 154.01 80.26 153.93C80.26 153.85 80.23 153.78 80.17 153.72L80.17 153.72Z" />
		<path id="Shape 1 copy 3" class="shp1" d="M56.12 73.48L60.8 77.84C60.87 77.91 60.95 77.94 61.04 77.94C61.13 77.95 61.21 77.92 61.28 77.86L61.81 77.43C61.88 77.37 61.92 77.3 61.92 77.22C61.92 77.14 61.89 77.07 61.83 77.01L57.88 73.34L62.06 69.93C62.13 69.87 62.17 69.8 62.17 69.72C62.17 69.65 62.14 69.58 62.07 69.51L61.57 69.05C61.51 68.98 61.43 68.95 61.34 68.95C61.25 68.94 61.17 68.97 61.1 69.03L56.14 73.07C56.06 73.13 56.03 73.2 56.03 73.27C56.02 73.35 56.05 73.42 56.12 73.48L56.12 73.48ZM52.15 73.35L56.83 77.71C56.9 77.78 56.98 77.81 57.07 77.81C57.16 77.81 57.24 77.79 57.31 77.73L57.84 77.3C57.91 77.24 57.95 77.17 57.95 77.09C57.95 77.01 57.92 76.94 57.85 76.88L53.9 73.2L58.09 69.8C58.16 69.74 58.2 69.67 58.2 69.59C58.2 69.51 58.17 69.44 58.1 69.38L57.6 68.91C57.53 68.85 57.45 68.82 57.36 68.82C57.27 68.81 57.19 68.84 57.12 68.9L52.16 72.94C52.09 73 52.05 73.06 52.05 73.14C52.05 73.22 52.08 73.29 52.15 73.35L52.15 73.35Z" />
		<path id="Shape 1 copy 30" class="shp1" d="M88.12 137.48L92.8 141.84C92.87 141.91 92.95 141.94 93.04 141.94C93.13 141.95 93.21 141.92 93.28 141.86L93.81 141.43C93.88 141.37 93.92 141.3 93.92 141.22C93.92 141.14 93.89 141.07 93.83 141.01L89.88 137.34L94.06 133.93C94.13 133.87 94.17 133.8 94.17 133.72C94.17 133.65 94.14 133.58 94.07 133.51L93.57 133.05C93.51 132.98 93.43 132.95 93.34 132.95C93.25 132.94 93.17 132.97 93.1 133.03L88.14 137.07C88.06 137.13 88.03 137.2 88.03 137.27C88.02 137.35 88.05 137.42 88.12 137.48L88.12 137.48ZM84.15 137.35L88.83 141.71C88.9 141.78 88.98 141.81 89.07 141.81C89.16 141.81 89.24 141.79 89.31 141.73L89.84 141.3C89.91 141.24 89.95 141.17 89.95 141.09C89.95 141.01 89.92 140.94 89.85 140.88L85.9 137.2L90.09 133.8C90.16 133.74 90.2 133.67 90.2 133.59C90.2 133.51 90.17 133.44 90.1 133.38L89.6 132.91C89.53 132.85 89.45 132.82 89.36 132.82C89.27 132.81 89.19 132.84 89.12 132.9L84.16 136.94C84.09 137 84.05 137.06 84.05 137.14C84.05 137.22 84.08 137.29 84.15 137.35L84.15 137.35Z" />
		<path id="Shape 1 copy 31" class="shp1" d="M134.12 73.48L138.8 77.84C138.87 77.91 138.95 77.94 139.04 77.94C139.13 77.95 139.21 77.92 139.28 77.86L139.81 77.43C139.88 77.37 139.92 77.3 139.92 77.22C139.92 77.14 139.89 77.07 139.83 77.01L135.88 73.34L140.06 69.93C140.13 69.87 140.17 69.8 140.17 69.72C140.17 69.65 140.14 69.58 140.07 69.51L139.57 69.05C139.51 68.98 139.43 68.95 139.34 68.95C139.25 68.94 139.17 68.97 139.1 69.03L134.14 73.07C134.06 73.13 134.03 73.2 134.03 73.27C134.02 73.35 134.05 73.42 134.12 73.48L134.12 73.48ZM130.15 73.35L134.83 77.71C134.9 77.78 134.98 77.81 135.07 77.81C135.16 77.81 135.24 77.79 135.31 77.73L135.84 77.3C135.91 77.24 135.95 77.17 135.95 77.09C135.95 77.01 135.92 76.94 135.85 76.88L131.9 73.2L136.09 69.8C136.16 69.74 136.2 69.67 136.2 69.59C136.2 69.51 136.17 69.44 136.1 69.38L135.6 68.91C135.53 68.85 135.45 68.82 135.36 68.82C135.27 68.81 135.19 68.84 135.12 68.9L130.16 72.94C130.09 73 130.05 73.06 130.05 73.14C130.05 73.22 130.08 73.29 130.15 73.35L130.15 73.35Z" />
		<path id="Shape 1 copy 32" class="shp1" d="M120.12 73.48L124.8 77.84C124.87 77.91 124.95 77.94 125.04 77.94C125.13 77.95 125.21 77.92 125.28 77.86L125.81 77.43C125.88 77.37 125.92 77.3 125.92 77.22C125.92 77.14 125.89 77.07 125.83 77.01L121.88 73.34L126.06 69.93C126.13 69.87 126.17 69.8 126.17 69.72C126.17 69.65 126.14 69.58 126.07 69.51L125.57 69.05C125.51 68.98 125.43 68.95 125.34 68.95C125.25 68.94 125.17 68.97 125.1 69.03L120.14 73.07C120.06 73.13 120.03 73.2 120.03 73.27C120.02 73.35 120.05 73.42 120.12 73.48L120.12 73.48ZM116.15 73.35L120.83 77.71C120.9 77.78 120.98 77.81 121.07 77.81C121.16 77.81 121.24 77.79 121.31 77.73L121.84 77.3C121.91 77.24 121.95 77.17 121.95 77.09C121.95 77.01 121.92 76.94 121.85 76.88L117.9 73.2L122.09 69.8C122.16 69.74 122.2 69.67 122.2 69.59C122.2 69.51 122.17 69.44 122.1 69.38L121.6 68.91C121.53 68.85 121.45 68.82 121.36 68.82C121.27 68.81 121.19 68.84 121.12 68.9L116.16 72.94C116.09 73 116.05 73.06 116.05 73.14C116.05 73.22 116.08 73.29 116.15 73.35L116.15 73.35Z" />
		<path id="Shape 1 copy 35" class="shp1" d="M152.12 89.48L156.8 93.84C156.87 93.91 156.95 93.94 157.04 93.94C157.13 93.95 157.21 93.92 157.28 93.86L157.81 93.43C157.88 93.37 157.92 93.3 157.92 93.22C157.92 93.14 157.89 93.07 157.83 93.01L153.88 89.34L158.06 85.93C158.13 85.87 158.17 85.8 158.17 85.72C158.17 85.65 158.14 85.58 158.07 85.51L157.57 85.05C157.51 84.98 157.43 84.95 157.34 84.95C157.25 84.94 157.17 84.97 157.1 85.03L152.14 89.07C152.06 89.13 152.03 89.2 152.03 89.27C152.02 89.35 152.05 89.42 152.12 89.48L152.12 89.48ZM148.15 89.35L152.83 93.71C152.9 93.78 152.98 93.81 153.07 93.81C153.16 93.81 153.24 93.79 153.31 93.73L153.84 93.3C153.91 93.24 153.95 93.17 153.95 93.09C153.95 93.01 153.92 92.94 153.85 92.88L149.9 89.2L154.09 85.8C154.16 85.74 154.2 85.67 154.2 85.59C154.2 85.51 154.17 85.44 154.1 85.38L153.6 84.91C153.53 84.85 153.45 84.82 153.36 84.82C153.27 84.81 153.19 84.84 153.12 84.9L148.16 88.94C148.09 89 148.05 89.06 148.05 89.14C148.05 89.22 148.08 89.29 148.15 89.35L148.15 89.35Z" />
		<path id="Shape 1 copy 33" class="shp1" d="M105.12 86.48L109.8 90.84C109.87 90.91 109.95 90.94 110.04 90.94C110.13 90.95 110.21 90.92 110.28 90.86L110.81 90.43C110.88 90.37 110.92 90.3 110.92 90.22C110.92 90.14 110.89 90.07 110.83 90.01L106.88 86.34L111.06 82.93C111.13 82.87 111.17 82.8 111.17 82.72C111.17 82.65 111.14 82.58 111.07 82.51L110.57 82.05C110.51 81.98 110.43 81.95 110.34 81.95C110.25 81.94 110.17 81.97 110.1 82.03L105.14 86.07C105.06 86.13 105.03 86.2 105.03 86.27C105.02 86.35 105.05 86.42 105.12 86.48L105.12 86.48ZM101.15 86.35L105.83 90.71C105.9 90.78 105.98 90.81 106.07 90.81C106.16 90.81 106.24 90.79 106.31 90.73L106.84 90.3C106.91 90.24 106.95 90.17 106.95 90.09C106.95 90.01 106.92 89.94 106.85 89.88L102.9 86.2L107.09 82.8C107.16 82.74 107.2 82.67 107.2 82.59C107.2 82.51 107.17 82.44 107.1 82.38L106.6 81.91C106.53 81.85 106.45 81.82 106.36 81.82C106.27 81.81 106.19 81.84 106.12 81.9L101.16 85.94C101.09 86 101.05 86.06 101.05 86.14C101.05 86.22 101.08 86.29 101.15 86.35L101.15 86.35Z" />
		<path id="Shape 1 copy 4" class="shp1" d="M42.55 76.14L46.87 71.41C46.93 71.35 46.96 71.27 46.96 71.18C46.97 71.09 46.94 71.01 46.88 70.94L46.44 70.41C46.38 70.34 46.31 70.3 46.24 70.3C46.16 70.3 46.09 70.33 46.03 70.4L42.39 74.38L38.94 70.23C38.88 70.16 38.81 70.13 38.73 70.12C38.66 70.12 38.59 70.15 38.53 70.22L38.06 70.73C38 70.8 37.97 70.87 37.97 70.96C37.96 71.05 37.99 71.13 38.05 71.2L42.14 76.13C42.2 76.2 42.26 76.23 42.34 76.24C42.42 76.24 42.49 76.2 42.55 76.14L42.55 76.14ZM42.46 80.11L46.77 75.39C46.84 75.32 46.87 75.24 46.87 75.15C46.87 75.06 46.84 74.98 46.78 74.91L46.35 74.38C46.29 74.31 46.22 74.28 46.14 74.28C46.06 74.27 45.99 74.31 45.93 74.37L42.29 78.36L38.85 74.21C38.79 74.14 38.72 74.1 38.64 74.1C38.56 74.1 38.49 74.13 38.43 74.2L37.97 74.7C37.91 74.77 37.87 74.85 37.87 74.94C37.87 75.03 37.9 75.11 37.96 75.18L42.04 80.1C42.1 80.17 42.17 80.21 42.25 80.21C42.33 80.21 42.4 80.18 42.46 80.11L42.46 80.11Z" />
		<path id="Shape 1 copy 5" class="shp1" d="M42.55 90.14L46.87 85.41C46.93 85.35 46.96 85.27 46.96 85.18C46.97 85.09 46.94 85.01 46.88 84.94L46.44 84.41C46.38 84.34 46.31 84.3 46.24 84.3C46.16 84.3 46.09 84.33 46.03 84.4L42.39 88.38L38.94 84.23C38.88 84.16 38.81 84.13 38.73 84.12C38.66 84.12 38.59 84.15 38.53 84.22L38.06 84.73C38 84.8 37.97 84.87 37.97 84.96C37.96 85.05 37.99 85.13 38.05 85.2L42.14 90.13C42.2 90.2 42.26 90.23 42.34 90.24C42.42 90.24 42.49 90.2 42.55 90.14L42.55 90.14ZM42.46 94.11L46.77 89.39C46.84 89.32 46.87 89.24 46.87 89.15C46.87 89.06 46.84 88.98 46.78 88.91L46.35 88.38C46.29 88.31 46.22 88.28 46.14 88.28C46.06 88.27 45.99 88.31 45.93 88.37L42.29 92.36L38.85 88.21C38.79 88.14 38.72 88.1 38.64 88.1C38.56 88.1 38.49 88.13 38.43 88.2L37.97 88.7C37.91 88.77 37.87 88.85 37.87 88.94C37.87 89.03 37.9 89.11 37.96 89.18L42.04 94.1C42.1 94.17 42.17 94.21 42.25 94.21C42.33 94.21 42.4 94.18 42.46 94.11L42.46 94.11Z" />
		<path id="Shape 1 copy 6" class="shp1" d="M43.38 105.98L38.42 101.93C38.35 101.88 38.27 101.85 38.18 101.85C38.09 101.85 38.01 101.89 37.95 101.95L37.44 102.42C37.38 102.48 37.34 102.55 37.35 102.63C37.35 102.71 37.39 102.77 37.46 102.83L41.64 106.24L37.69 109.92C37.62 109.98 37.59 110.05 37.59 110.13C37.59 110.2 37.63 110.27 37.7 110.33L38.23 110.76C38.3 110.82 38.38 110.85 38.47 110.85C38.56 110.84 38.64 110.81 38.71 110.75L43.39 106.39C43.46 106.33 43.49 106.26 43.49 106.18C43.49 106.1 43.45 106.04 43.38 105.98L43.38 105.98ZM47.35 105.85L42.39 101.81C42.32 101.75 42.24 101.72 42.15 101.72C42.06 101.73 41.99 101.76 41.92 101.82L41.42 102.29C41.35 102.35 41.32 102.42 41.32 102.5C41.32 102.58 41.36 102.64 41.43 102.7L45.61 106.11L41.66 109.79C41.59 109.85 41.56 109.92 41.56 110C41.56 110.08 41.6 110.14 41.67 110.2L42.2 110.64C42.28 110.69 42.36 110.72 42.45 110.72C42.53 110.72 42.61 110.68 42.68 110.62L47.37 106.26C47.43 106.2 47.47 106.13 47.46 106.05C47.46 105.98 47.42 105.91 47.35 105.85L47.35 105.85Z" />
		<path id="Shape 1 copy 7" class="shp1" d="M58.38 105.98L53.42 101.93C53.35 101.88 53.27 101.85 53.18 101.85C53.09 101.85 53.01 101.89 52.95 101.95L52.44 102.42C52.38 102.48 52.34 102.55 52.35 102.63C52.35 102.71 52.39 102.77 52.46 102.83L56.64 106.24L52.69 109.92C52.62 109.98 52.59 110.05 52.59 110.13C52.59 110.2 52.63 110.27 52.7 110.33L53.23 110.76C53.3 110.82 53.38 110.85 53.47 110.85C53.56 110.84 53.64 110.81 53.71 110.75L58.39 106.39C58.46 106.33 58.49 106.26 58.49 106.18C58.49 106.1 58.45 106.04 58.38 105.98L58.38 105.98ZM62.35 105.85L57.39 101.81C57.32 101.75 57.24 101.72 57.15 101.72C57.06 101.73 56.99 101.76 56.92 101.82L56.42 102.29C56.35 102.35 56.32 102.42 56.32 102.5C56.32 102.58 56.36 102.64 56.43 102.7L60.61 106.11L56.66 109.79C56.59 109.85 56.56 109.92 56.56 110C56.56 110.08 56.6 110.14 56.67 110.2L57.2 110.64C57.28 110.69 57.36 110.72 57.45 110.72C57.53 110.72 57.61 110.68 57.68 110.62L62.37 106.26C62.43 106.2 62.47 106.13 62.46 106.05C62.46 105.98 62.42 105.91 62.35 105.85L62.35 105.85Z" />
		<path id="Shape 1 copy 8" class="shp1" d="M73.08 105.32L69.14 110.36C69.08 110.43 69.05 110.51 69.06 110.6C69.06 110.69 69.1 110.77 69.16 110.83L69.64 111.32C69.7 111.39 69.77 111.42 69.85 111.42C69.93 111.41 70 111.38 70.05 111.3L73.38 107.05L77.13 110.93C77.2 110.99 77.27 111.02 77.34 111.02C77.42 111.02 77.49 110.98 77.55 110.91L77.97 110.36C78.03 110.29 78.05 110.21 78.05 110.12C78.04 110.03 78.01 109.95 77.94 109.89L73.49 105.29C73.43 105.23 73.36 105.2 73.28 105.2C73.2 105.21 73.13 105.24 73.08 105.32L73.08 105.32ZM72.87 101.35L68.93 106.39C68.87 106.46 68.84 106.54 68.85 106.63C68.85 106.72 68.89 106.8 68.95 106.86L69.43 107.36C69.49 107.42 69.56 107.45 69.64 107.45C69.72 107.44 69.79 107.41 69.84 107.33L73.17 103.08L76.92 106.96C76.99 107.02 77.06 107.05 77.13 107.05C77.21 107.05 77.28 107.01 77.34 106.94L77.76 106.39C77.81 106.32 77.84 106.24 77.84 106.15C77.83 106.06 77.8 105.99 77.73 105.92L73.28 101.32C73.22 101.26 73.15 101.23 73.07 101.23C72.99 101.24 72.92 101.27 72.87 101.35L72.87 101.35Z" />
		<path id="Shape 1 copy 9" class="shp1" d="M74.08 89.32L70.14 94.36C70.08 94.43 70.05 94.51 70.06 94.6C70.06 94.69 70.1 94.77 70.16 94.83L70.64 95.32C70.7 95.39 70.77 95.42 70.85 95.42C70.93 95.41 71 95.38 71.05 95.3L74.38 91.05L78.13 94.93C78.2 94.99 78.27 95.02 78.34 95.02C78.42 95.02 78.49 94.98 78.55 94.91L78.97 94.36C79.03 94.29 79.05 94.21 79.05 94.12C79.04 94.03 79.01 93.95 78.94 93.89L74.49 89.29C74.43 89.23 74.36 89.2 74.28 89.2C74.2 89.21 74.13 89.24 74.08 89.32L74.08 89.32ZM73.87 85.35L69.93 90.39C69.87 90.46 69.84 90.54 69.85 90.63C69.85 90.72 69.89 90.8 69.95 90.86L70.43 91.36C70.49 91.42 70.56 91.45 70.64 91.45C70.72 91.44 70.79 91.41 70.84 91.33L74.17 87.08L77.92 90.96C77.99 91.02 78.06 91.05 78.13 91.05C78.21 91.05 78.28 91.01 78.34 90.94L78.76 90.39C78.81 90.32 78.84 90.24 78.84 90.15C78.83 90.06 78.8 89.99 78.73 89.92L74.28 85.32C74.22 85.26 74.15 85.23 74.07 85.23C73.99 85.24 73.92 85.27 73.87 85.35L73.87 85.35Z" />
		<path id="Shape 1 copy 10" class="shp1" d="M74.08 72.32L70.14 77.36C70.08 77.43 70.05 77.51 70.06 77.6C70.06 77.69 70.1 77.77 70.16 77.83L70.64 78.32C70.7 78.39 70.77 78.42 70.85 78.42C70.93 78.41 71 78.38 71.05 78.3L74.38 74.05L78.13 77.93C78.2 77.99 78.27 78.02 78.34 78.02C78.42 78.02 78.49 77.98 78.55 77.91L78.97 77.36C79.03 77.29 79.05 77.21 79.05 77.12C79.04 77.03 79.01 76.95 78.94 76.89L74.49 72.29C74.43 72.23 74.36 72.2 74.28 72.2C74.2 72.21 74.13 72.24 74.08 72.32L74.08 72.32ZM73.87 68.35L69.93 73.39C69.87 73.46 69.84 73.54 69.85 73.63C69.85 73.72 69.89 73.8 69.95 73.86L70.43 74.36C70.49 74.42 70.56 74.45 70.64 74.45C70.72 74.44 70.79 74.41 70.84 74.33L74.17 70.08L77.92 73.96C77.99 74.02 78.06 74.05 78.13 74.05C78.21 74.05 78.28 74.01 78.34 73.94L78.76 73.39C78.81 73.32 78.84 73.24 78.84 73.15C78.83 73.06 78.8 72.99 78.73 72.92L74.28 68.32C74.22 68.26 74.15 68.23 74.07 68.23C73.99 68.24 73.92 68.27 73.87 68.35L73.87 68.35Z" />
		<path id="Shape 1 copy 11" class="shp1" d="M74.08 56.32L70.14 61.36C70.08 61.43 70.05 61.51 70.06 61.6C70.06 61.69 70.1 61.77 70.16 61.83L70.64 62.32C70.7 62.39 70.77 62.42 70.85 62.42C70.93 62.41 71 62.38 71.05 62.3L74.38 58.05L78.13 61.93C78.2 61.99 78.27 62.02 78.34 62.02C78.42 62.02 78.49 61.98 78.55 61.91L78.97 61.36C79.03 61.29 79.05 61.21 79.05 61.12C79.04 61.03 79.01 60.95 78.94 60.89L74.49 56.29C74.43 56.23 74.36 56.2 74.28 56.2C74.2 56.21 74.13 56.24 74.08 56.32L74.08 56.32ZM73.87 52.35L69.93 57.39C69.87 57.46 69.84 57.54 69.85 57.63C69.85 57.72 69.89 57.8 69.95 57.86L70.43 58.36C70.49 58.42 70.56 58.45 70.64 58.45C70.72 58.44 70.79 58.41 70.84 58.33L74.17 54.08L77.92 57.96C77.99 58.02 78.06 58.05 78.13 58.05C78.21 58.05 78.28 58.01 78.34 57.94L78.76 57.39C78.81 57.32 78.84 57.24 78.84 57.15C78.83 57.06 78.8 56.99 78.73 56.92L74.28 52.32C74.22 52.26 74.15 52.23 74.07 52.23C73.99 52.24 73.92 52.27 73.87 52.35L73.87 52.35Z" />
		<path id="Shape 1 copy 12" class="shp1" d="M73.08 40.32L69.14 45.36C69.08 45.43 69.05 45.51 69.06 45.6C69.06 45.69 69.1 45.77 69.16 45.83L69.64 46.32C69.7 46.39 69.77 46.42 69.85 46.42C69.93 46.41 70 46.38 70.05 46.3L73.38 42.05L77.13 45.93C77.2 45.99 77.27 46.02 77.34 46.02C77.42 46.02 77.49 45.98 77.55 45.91L77.97 45.36C78.03 45.29 78.05 45.21 78.05 45.12C78.04 45.03 78.01 44.95 77.94 44.89L73.49 40.29C73.43 40.23 73.36 40.2 73.28 40.2C73.2 40.21 73.13 40.24 73.08 40.32L73.08 40.32ZM72.87 36.35L68.93 41.39C68.87 41.46 68.84 41.54 68.85 41.63C68.85 41.72 68.89 41.8 68.95 41.86L69.43 42.36C69.49 42.42 69.56 42.45 69.64 42.45C69.72 42.44 69.79 42.41 69.84 42.33L73.17 38.08L76.92 41.96C76.99 42.02 77.06 42.05 77.13 42.05C77.21 42.05 77.28 42.01 77.34 41.94L77.76 41.39C77.81 41.32 77.84 41.24 77.84 41.15C77.83 41.06 77.8 40.99 77.73 40.92L73.28 36.32C73.22 36.26 73.15 36.23 73.07 36.23C72.99 36.24 72.92 36.27 72.87 36.35L72.87 36.35Z" />
		<path id="Shape 1 copy 13" class="shp1" d="M75.47 25.99L70.57 21.88C70.5 21.82 70.42 21.79 70.33 21.79C70.24 21.79 70.16 21.82 70.09 21.88L69.58 22.34C69.52 22.41 69.48 22.47 69.48 22.55C69.49 22.63 69.52 22.7 69.59 22.76L73.72 26.23L69.72 29.85C69.65 29.91 69.62 29.98 69.62 30.05C69.62 30.13 69.66 30.2 69.73 30.26L70.25 30.7C70.32 30.76 70.4 30.79 70.49 30.79C70.58 30.79 70.66 30.75 70.73 30.69L75.48 26.41C75.54 26.34 75.58 26.27 75.58 26.2C75.57 26.12 75.54 26.05 75.47 25.99L75.47 25.99ZM79.44 25.92L74.54 21.8C74.47 21.75 74.39 21.72 74.3 21.72C74.21 21.72 74.14 21.75 74.07 21.81L73.56 22.27C73.49 22.33 73.46 22.4 73.46 22.48C73.46 22.56 73.5 22.63 73.57 22.69L77.7 26.16L73.69 29.77C73.63 29.84 73.59 29.91 73.59 29.98C73.59 30.06 73.63 30.13 73.7 30.19L74.23 30.63C74.3 30.69 74.38 30.72 74.47 30.72C74.56 30.71 74.63 30.68 74.7 30.62L79.45 26.33C79.52 26.27 79.55 26.2 79.55 26.12C79.55 26.05 79.51 25.98 79.44 25.92L79.44 25.92Z" />
		<path id="Shape 1 copy 14" class="shp1" d="M90.47 25.99L85.57 21.88C85.5 21.82 85.42 21.79 85.33 21.79C85.24 21.79 85.16 21.82 85.09 21.88L84.58 22.34C84.52 22.41 84.48 22.47 84.48 22.55C84.49 22.63 84.52 22.7 84.59 22.76L88.72 26.23L84.72 29.85C84.65 29.91 84.62 29.98 84.62 30.05C84.62 30.13 84.66 30.2 84.73 30.26L85.25 30.7C85.32 30.76 85.4 30.79 85.49 30.79C85.58 30.79 85.66 30.75 85.73 30.69L90.48 26.41C90.54 26.34 90.58 26.27 90.58 26.2C90.57 26.12 90.54 26.05 90.47 25.99L90.47 25.99ZM94.44 25.92L89.54 21.8C89.47 21.75 89.39 21.72 89.3 21.72C89.21 21.72 89.14 21.75 89.07 21.81L88.56 22.27C88.49 22.33 88.46 22.4 88.46 22.48C88.46 22.56 88.5 22.63 88.57 22.69L92.7 26.16L88.69 29.77C88.63 29.84 88.59 29.91 88.59 29.98C88.59 30.06 88.63 30.13 88.7 30.19L89.23 30.63C89.3 30.69 89.38 30.72 89.47 30.72C89.56 30.71 89.63 30.68 89.7 30.62L94.45 26.33C94.52 26.27 94.55 26.2 94.55 26.12C94.55 26.05 94.51 25.98 94.44 25.92L94.44 25.92Z" />
		<path id="Shape 1 copy 15" class="shp1" d="M108.47 9.99L103.57 5.88C103.5 5.82 103.42 5.79 103.33 5.79C103.24 5.79 103.16 5.82 103.09 5.88L102.58 6.34C102.52 6.41 102.48 6.47 102.48 6.55C102.49 6.63 102.52 6.7 102.59 6.76L106.72 10.23L102.72 13.85C102.65 13.91 102.62 13.98 102.62 14.05C102.62 14.13 102.66 14.2 102.73 14.26L103.25 14.7C103.32 14.76 103.4 14.79 103.49 14.79C103.58 14.79 103.66 14.75 103.73 14.69L108.48 10.41C108.54 10.34 108.58 10.27 108.58 10.2C108.57 10.12 108.54 10.05 108.47 9.99L108.47 9.99ZM112.44 9.92L107.54 5.8C107.47 5.75 107.39 5.72 107.3 5.72C107.21 5.72 107.14 5.75 107.07 5.81L106.56 6.27C106.49 6.33 106.46 6.4 106.46 6.48C106.46 6.56 106.5 6.63 106.57 6.69L110.7 10.16L106.69 13.77C106.63 13.84 106.59 13.91 106.59 13.98C106.59 14.06 106.63 14.13 106.7 14.19L107.23 14.63C107.3 14.69 107.38 14.72 107.47 14.72C107.56 14.71 107.63 14.68 107.7 14.62L112.45 10.33C112.52 10.27 112.55 10.2 112.55 10.12C112.55 10.05 112.51 9.98 112.44 9.92L112.44 9.92Z" />
		<path id="Shape 1 copy 16" class="shp1" d="M124.47 24.99L119.57 20.88C119.5 20.82 119.42 20.79 119.33 20.79C119.24 20.79 119.16 20.82 119.09 20.88L118.58 21.34C118.52 21.41 118.48 21.47 118.48 21.55C118.49 21.63 118.52 21.7 118.59 21.76L122.72 25.23L118.72 28.85C118.65 28.91 118.62 28.98 118.62 29.05C118.62 29.13 118.66 29.2 118.73 29.26L119.25 29.7C119.32 29.76 119.4 29.79 119.49 29.79C119.58 29.79 119.66 29.75 119.73 29.69L124.48 25.41C124.54 25.34 124.58 25.27 124.58 25.2C124.57 25.12 124.54 25.05 124.47 24.99L124.47 24.99ZM128.44 24.92L123.54 20.8C123.47 20.75 123.39 20.72 123.3 20.72C123.21 20.72 123.14 20.75 123.07 20.81L122.56 21.27C122.49 21.33 122.46 21.4 122.46 21.48C122.46 21.56 122.5 21.63 122.57 21.69L126.7 25.16L122.69 28.77C122.63 28.84 122.59 28.91 122.59 28.98C122.59 29.06 122.63 29.13 122.7 29.19L123.23 29.63C123.3 29.69 123.38 29.72 123.47 29.72C123.56 29.71 123.63 29.68 123.7 29.62L128.45 25.33C128.52 25.27 128.55 25.2 128.55 25.12C128.55 25.05 128.51 24.98 128.44 24.92L128.44 24.92Z" />
		<path id="Shape 1 copy 17" class="shp1" d="M140.47 40.99L135.57 36.88C135.5 36.82 135.42 36.79 135.33 36.79C135.24 36.79 135.16 36.82 135.09 36.88L134.58 37.34C134.52 37.41 134.48 37.47 134.48 37.55C134.49 37.63 134.52 37.7 134.59 37.76L138.72 41.23L134.72 44.85C134.65 44.91 134.62 44.98 134.62 45.05C134.62 45.13 134.66 45.2 134.73 45.26L135.25 45.7C135.32 45.76 135.4 45.79 135.49 45.79C135.58 45.79 135.66 45.75 135.73 45.69L140.48 41.41C140.54 41.34 140.58 41.27 140.58 41.2C140.57 41.12 140.54 41.05 140.47 40.99L140.47 40.99ZM144.44 40.92L139.54 36.8C139.47 36.75 139.39 36.72 139.3 36.72C139.21 36.72 139.14 36.75 139.07 36.81L138.56 37.27C138.49 37.33 138.46 37.4 138.46 37.48C138.46 37.56 138.5 37.63 138.57 37.69L142.7 41.16L138.69 44.77C138.63 44.84 138.59 44.91 138.59 44.98C138.59 45.06 138.63 45.13 138.7 45.19L139.23 45.63C139.3 45.69 139.38 45.72 139.47 45.72C139.56 45.71 139.63 45.68 139.7 45.62L144.45 41.33C144.52 41.27 144.55 41.2 144.55 41.12C144.55 41.05 144.51 40.98 144.44 40.92L144.44 40.92Z" />
		<path id="Shape 1 copy 18" class="shp1" d="M106.26 24.3L102.12 29.17C102.06 29.24 102.03 29.32 102.03 29.41C102.03 29.5 102.06 29.58 102.12 29.65L102.58 30.16C102.64 30.23 102.71 30.26 102.79 30.26C102.87 30.26 102.93 30.23 102.99 30.16L106.49 26.05L110.08 30.07C110.14 30.14 110.21 30.18 110.29 30.17C110.37 30.17 110.44 30.14 110.5 30.07L110.94 29.55C111 29.48 111.03 29.4 111.03 29.31C111.03 29.22 111 29.14 110.93 29.07L106.68 24.3C106.61 24.23 106.55 24.19 106.47 24.19C106.39 24.2 106.32 24.23 106.26 24.3L106.26 24.3ZM106.21 20.33L102.07 25.2C102.01 25.27 101.98 25.35 101.98 25.44C101.98 25.53 102.01 25.61 102.07 25.68L102.53 26.19C102.59 26.26 102.66 26.29 102.74 26.29C102.82 26.29 102.89 26.25 102.95 26.18L106.44 22.07L110.03 26.1C110.09 26.17 110.16 26.2 110.24 26.2C110.32 26.2 110.39 26.16 110.45 26.09L110.89 25.57C110.95 25.5 110.98 25.42 110.98 25.33C110.98 25.24 110.95 25.16 110.89 25.09L106.63 20.32C106.57 20.25 106.5 20.22 106.42 20.22C106.34 20.22 106.27 20.26 106.21 20.33L106.21 20.33Z" />
		<path id="Shape 1 copy 19" class="shp1" d="M138.26 86.3L134.12 91.17C134.06 91.24 134.03 91.32 134.03 91.41C134.03 91.5 134.06 91.58 134.12 91.65L134.58 92.16C134.64 92.23 134.71 92.26 134.79 92.26C134.87 92.26 134.93 92.23 134.99 92.16L138.49 88.05L142.08 92.07C142.14 92.14 142.21 92.18 142.29 92.17C142.37 92.17 142.44 92.14 142.5 92.07L142.94 91.55C143 91.48 143.03 91.4 143.03 91.31C143.03 91.22 143 91.14 142.93 91.07L138.68 86.3C138.61 86.23 138.55 86.19 138.47 86.19C138.39 86.2 138.32 86.23 138.26 86.3L138.26 86.3ZM138.21 82.33L134.07 87.2C134.01 87.27 133.98 87.35 133.98 87.44C133.98 87.53 134.01 87.61 134.07 87.68L134.53 88.19C134.59 88.26 134.66 88.29 134.74 88.29C134.82 88.29 134.89 88.25 134.95 88.18L138.44 84.07L142.03 88.1C142.09 88.17 142.16 88.2 142.24 88.2C142.32 88.2 142.39 88.16 142.45 88.09L142.89 87.57C142.95 87.5 142.98 87.42 142.98 87.33C142.98 87.24 142.95 87.16 142.89 87.09L138.63 82.32C138.57 82.25 138.5 82.22 138.42 82.22C138.34 82.22 138.27 82.26 138.21 82.33L138.21 82.33Z" />
	</g>
</svg>